<?xml version="1.0" standalone="no"?><!DOCTYPE svg PUBLIC "-//W3C//DTD SVG 1.1//EN" "http://www.w3.org/Graphics/SVG/1.1/DTD/svg11.dtd"><svg t="1585378038879" class="icon" viewBox="0 0 1024 1024" version="1.1" xmlns="http://www.w3.org/2000/svg" p-id="1296" width="16" height="16" xmlns:xlink="http://www.w3.org/1999/xlink"><defs><style type="text/css"></style></defs><path d="M477.866667 0c263.918933 0 477.866667 213.947733 477.866666 477.866667s-213.947733 477.866667-477.866666 477.866666S0 741.7856 0 477.866667 213.947733 0 477.866667 0z m0 68.266667C251.665067 68.266667 68.266667 251.665067 68.266667 477.866667s183.3984 409.6 409.6 409.6 409.6-183.3984 409.6-409.6S704.068267 68.266667 477.866667 68.266667z" fill="#8a8a8a" p-id="1297"></path><path d="M766.787109 815.058932m24.135912-24.135911l0 0q24.135911-24.135911 48.271823 0l144.815469 144.815469q24.135911 24.135911 0 48.271823l0 0q-24.135911 24.135911-48.271823 0l-144.815469-144.815469q-24.135911-24.135911 0-48.271823Z" fill="#8a8a8a" p-id="1298"></path></svg>